<svg xmlns="http://www.w3.org/2000/svg" version="1.1" xmlns:xlink="http://www.w3.org/1999/xlink" xmlns:svgjs="http://svgjs.dev/svgjs" width="2000" height="2007" viewBox="0 0 2000 2007"><g transform="matrix(1,0,0,1,0,-3.567728764048411)"><svg viewBox="0 0 280 281" data-background-color="#ffffff" preserveAspectRatio="xMidYMid meet" height="2007" width="2000" xmlns="http://www.w3.org/2000/svg" xmlns:xlink="http://www.w3.org/1999/xlink"><g id="tight-bounds" transform="matrix(1,0,0,1,0,0.5000000000000284)"><svg viewBox="0 0 280 280" height="280" width="280"><g><svg viewBox="0 0 280 280" height="280" width="280"><g><svg viewBox="0 0 280 280" height="280" width="280"><g id="textblocktransform"><svg viewBox="0 0 280 280" height="280" width="280" id="textblock"><g><svg viewBox="0 0 280 280" height="280" width="280"><g transform="matrix(1,0,0,1,74.00336708925556,86.9210713054162)"><svg viewBox="0 0 131.99326582148888 106.15785738916759" height="106.15785738916759" width="131.99326582148888"><g id="icon-0"><svg xmlns="http://www.w3.org/2000/svg" xmlns:xlink="http://www.w3.org/1999/xlink" version="1.1" x="0" y="0" viewBox="0 9.786 100.00034525290005 80.42699999999999" enable-background="new 0 0 100 100" xml:space="preserve" id="jxe-0" width="131.99326582148888" height="106.15785738916759" class="icon-jxe-0" data-fill-palette-color="accent"><path d="M49.942 52.994L90.595 51.529C88.068 47.352 87.436 43.698 82.606 43.068 75.377 42.128 68.148 41.185 60.918 40.242L18.843 34.762C20.101 36.792 39.724 53.361 49.942 52.994" fill="#000000" data-fill-palette-color="accent"></path><path d="M0 9.786C4.391 17.043 26.615 32.858 32.953 33.672 50.283 35.903 67.61 38.132 84.939 40.36 81.546 34.753 80.759 31.01 74.627 29.401L47.91 22.378C31.94 18.182 15.97 13.984 0 9.786" fill="#000000" data-fill-palette-color="accent"></path><path d="M63.108 66.207L94.349 59.547C92.321 56.201 92.315 54.188 88.522 54.358 82.364 54.631 76.208 54.907 70.051 55.18 58.708 55.686 47.365 56.194 36.023 56.698 37.298 58.064 54.94 67.947 63.108 66.207" fill="#000000" data-fill-palette-color="accent"></path><path d="M87.682 90.213C93.407 86.494 94.944 82.492 98.201 76.406 101.852 69.582 99.458 68.562 95.38 61.81 94.963 61.122 89.538 62.042 88.927 62.714 88.182 63.532 88.679 68.169 88.633 69.21z" fill="#000000" data-fill-palette-color="accent"></path><path d="M86.35 63.447C82.555 64.256 77.746 63.638 76.778 67.676L72.658 84.887C81.904 82.678 86.028 71.582 86.35 63.447" fill="#000000" data-fill-palette-color="accent"></path><path d="M74.666 66.121C65.518 68.074 65.71 70.732 61.787 79.301 68.007 78.711 73.811 71.941 74.666 66.121" fill="#000000" data-fill-palette-color="accent"></path></svg></g></svg></g><g id="text-0"><path d="M29.159 108.851l-1.944 5.632-1.215-0.419 0.654-1.893-23.032-14.841 0.494-1.432 27.283 2.522 0.787-2.28 1.215 0.42-2.903 8.41-1.215-0.419 1.245-3.607-9.154-0.84-2.028 5.877 7.737 4.947 0.861-2.496zM20.137 99.993l-11.943-1.128 10.11 6.44z" fill="#000000" data-fill-palette-color="primary"></path><path d="M45.974 75.356l-4.444 5.995-1.033-0.765 1.478-1.994-20.347-15.082-1.478 1.993-1.032-0.766 4.444-5.995 1.033 0.766-1.484 2.001 8.781 6.509 4.782-6.452-8.78-6.509-1.484 2.001-1.032-0.765 4.444-5.995 1.032 0.765-1.477 1.993 20.347 15.083 1.477-1.993 1.033 0.765-4.444 5.995-1.033-0.765 1.484-2.001-10.598-7.856-4.783 6.452 10.598 7.855 1.484-2.001z" fill="#000000" data-fill-palette-color="primary"></path><path d="M69.473 51.344l-4.852 3.458-0.746-1.047 1.842-1.312-14.701-20.625-1.842 1.313-0.746-1.047 3.011-2.145 18.1 15.987-9.2-22.332 3.465-2.469 0.746 1.047-1.964 1.399 14.701 20.625 1.963-1.399 0.746 1.046-5.704 4.066-0.746-1.047 1.656-1.18-10.763-15.099 7.76 18.818-0.949 0.676-15.257-13.474 10.762 15.099 1.972-1.405z" fill="#000000" data-fill-palette-color="primary"></path><path d="M111.292 30.901l-15.058 5.018-0.407-1.219 3.006-1.002-8.007-24.029-3.006 1.002-0.406-1.219 14.699-4.898 2.551 7.656-1.002 0.334-1.767-3.664c-0.794-1.647-2.073-2.176-3.838-1.589v0l-4.716 1.572 3.386 10.162 4.613-1.538-1.516-4.546 1.144-0.381 3.434 10.303-1.144 0.381-1.512-4.537-4.613 1.537 4.196 12.591 5.076-1.692c1.746-0.582 2.435-1.781 2.067-3.598v0l-0.97-4.675 1.002-0.334z" fill="#000000" data-fill-palette-color="primary"></path><path d="M138.284 27.897l-7.123 0.071-0.013-1.285 3.168-0.032-0.251-25.326-3.168 0.031-0.013-1.285 7.124-0.071c1.581-0.016 2.953 0.366 4.116 1.145 1.164 0.779 2.131 1.832 2.901 3.16 0.764 1.321 1.343 2.81 1.739 4.467 0.395 1.657 0.601 3.352 0.618 5.085v0c0.017 1.734-0.155 3.433-0.518 5.097-0.362 1.664-0.912 3.164-1.649 4.5-0.744 1.343-1.69 2.415-2.838 3.217-1.148 0.802-2.512 1.211-4.093 1.226zM138.02 1.206v0l-1.325 0.013 0.252 25.486 1.325-0.013c1.103-0.011 2.113-0.287 3.031-0.827 0.911-0.534 1.638-1.312 2.179-2.334 0.541-1.022 0.805-2.263 0.79-3.724v0l-0.117-11.836c-0.015-1.481-0.303-2.724-0.864-3.728-0.561-0.998-1.303-1.754-2.225-2.27-0.929-0.522-1.944-0.778-3.046-0.767z" fill="#000000" data-fill-palette-color="primary"></path><path d="M202.973 47.327l-4.85-3.461 0.746-1.046 1.631 1.163 20.763-17.878 1.232 0.88-10.154 25.448 1.962 1.4-0.746 1.047-7.243-5.169 0.747-1.046 3.106 2.217 3.402-8.54-5.061-3.612-6.938 6.017 2.149 1.534zM214.026 41.187l4.468-11.133-9.043 7.868z" fill="#000000" data-fill-palette-color="primary"></path><path d="M235.983 80.252l-9.646-12.604 1.02-0.781 1.926 2.516 20.113-15.393-1.926-2.516 1.021-0.782 5.456 7.129-1.021 0.782-1.925-2.517-20.09 15.375 3.252 4.249c1.118 1.461 2.477 1.722 4.075 0.784v0l4.106-2.44 0.641 0.839z" fill="#000000" data-fill-palette-color="primary"></path><path d="M249.899 111.844l-4.354-12.779 1.216-0.415 1.752 5.14 9.921-3.381 12.109-10.493-0.961-2.82 1.217-0.415 2.988 8.771-1.217 0.415-1.201-3.528-10.749 9.357 14.081 0.424-0.803-2.358 1.216-0.415 2.044 5.998-1.217 0.415-0.816-2.396-15.735-0.491-10.026 3.416 1.752 5.14z" fill="#000000" data-fill-palette-color="primary"></path><path d="M9.914 185.33l-1.943-5.633 1.215-0.419 0.653 1.893 27.283-2.521 0.494 1.431-23.032 14.841 0.787 2.28-1.215 0.419-2.902-8.411 1.215-0.419 1.244 3.607 7.724-4.984-2.028-5.877-9.141 0.878 0.861 2.495zM22.48 186.738l10.096-6.478-11.93 1.166z" fill="#000000" data-fill-palette-color="primary"></path><path d="M29.619 224.307l-4.444-5.995 1.033-0.765 1.477 1.993 20.347-15.083-1.477-1.993 1.032-0.765 4.444 5.995-1.032 0.765-1.483-2.001-8.781 6.509 4.782 6.452 8.781-6.509-1.484-2.001 1.033-0.766 4.444 5.995-1.032 0.766-1.478-1.993-20.347 15.082 1.478 1.994-1.033 0.765-4.444-5.995 1.032-0.766 1.484 2.001 10.598-7.855-4.783-6.452-10.598 7.856 1.484 2.001z" fill="#000000" data-fill-palette-color="primary"></path><path d="M57.657 252.774l-4.852-3.458 0.746-1.047 1.842 1.313 14.7-20.625-1.842-1.313 0.746-1.046 3.011 2.145-9.208 22.325 18.108-15.981 3.465 2.47-0.746 1.046-1.964-1.399-14.7 20.624 1.963 1.4-0.746 1.047-5.704-4.066 0.746-1.047 1.655 1.18 10.763-15.099-15.257 13.474-0.949-0.677 7.759-18.817-10.762 15.099 1.972 1.405z" fill="#000000" data-fill-palette-color="primary"></path><path d="M104.856 275.953l-15.058-5.018 0.406-1.22 3.006 1.002 8.007-24.029-3.006-1.001 0.406-1.22 14.699 4.898-2.551 7.657-1.002-0.334 0.784-3.992c0.353-1.794-0.353-2.985-2.118-3.573v0l-4.716-1.572-3.387 10.162 4.613 1.537 1.515-4.547 1.144 0.382-3.433 10.303-1.144-0.381 1.512-4.537-4.613-1.538-4.196 12.591 5.076 1.692c1.746 0.582 3.016 0.035 3.813-1.639v0l2.028-4.323 1.002 0.334z" fill="#000000" data-fill-palette-color="primary"></path><path d="M138.083 280l-7.124-0.071 0.013-1.285 3.168 0.031 0.251-25.326-3.169-0.032 0.013-1.285 7.124 0.071c1.581 0.016 2.945 0.424 4.093 1.226 1.148 0.802 2.094 1.874 2.838 3.217 0.737 1.336 1.287 2.836 1.649 4.5 0.362 1.664 0.535 3.363 0.518 5.097v0c-0.017 1.734-0.223 3.429-0.619 5.085-0.395 1.657-0.974 3.146-1.738 4.467-0.77 1.328-1.737 2.381-2.901 3.16-1.164 0.779-2.536 1.161-4.116 1.145zM138.347 253.308v0l-1.325-0.013-0.253 25.486 1.326 0.013c1.103 0.011 2.118-0.245 3.046-0.767 0.922-0.516 1.663-1.279 2.225-2.29 0.561-1.011 0.849-2.247 0.864-3.708v0l0.117-11.836c0.015-1.481-0.249-2.729-0.79-3.744-0.541-1.008-1.268-1.78-2.179-2.314-0.918-0.541-1.928-0.816-3.031-0.827z" fill="#000000" data-fill-palette-color="primary"></path><path d="M214.798 256.784l-4.85 3.461-0.746-1.046 1.63-1.163-10.155-25.448 1.233-0.88 20.763 17.878 1.963-1.401 0.746 1.046-7.242 5.169-0.747-1.046 3.107-2.217-6.97-5.994-5.061 3.612 3.434 8.517 2.149-1.534zM212.586 244.336l-9.075-7.846 4.501 11.11z" fill="#000000" data-fill-palette-color="primary"></path><path d="M252.15 219.66l-9.647 12.605-1.02-0.781 1.925-2.517-20.113-15.393-1.925 2.517-1.021-0.782 5.456-7.129 1.021 0.781-1.926 2.517 20.089 15.375 3.252-4.249c1.118-1.461 1.015-2.841-0.308-4.139v0l-3.427-3.325 0.641-0.839z" fill="#000000" data-fill-palette-color="primary"></path><path d="M269.169 182.262l-4.354 12.779-1.217-0.414 1.752-5.14-9.922-3.381-15.997 0.918-0.96 2.82-1.217-0.415 2.988-8.771 1.217 0.415-1.202 3.527 14.226-0.848-10.893-8.932-0.804 2.358-1.216-0.415 2.043-5.998 1.217 0.414-0.816 2.396 12.162 9.996 10.025 3.416 1.752-5.14z" fill="#000000" data-fill-palette-color="primary"></path><path d="M2.842 143.77c0-5.886 4.771-10.657 10.657-10.657 5.886 0 10.657 4.771 10.657 10.657 0 5.886-4.771 10.657-10.657 10.657-5.886 0-10.657-4.771-10.657-10.657z" fill="#000000" data-fill-palette-color="primary"></path><path d="M253.931 143.77c0-5.886 4.771-10.657 10.657-10.657 5.886 0 10.657 4.771 10.657 10.657 0 5.886-4.771 10.657-10.657 10.657-5.886 0-10.657-4.771-10.657-10.657z" fill="#000000" data-fill-palette-color="primary"></path></g><g id="text-1"></g></svg></g></svg></g></svg></g><g></g></svg></g><defs></defs></svg><rect width="280" height="280" fill="none" stroke="none" visibility="hidden"></rect></g></svg></g></svg>